<svg width="174" height="403" viewBox="0 0 174 403" fill="none" xmlns="http://www.w3.org/2000/svg">
<g style="mix-blend-mode:screen">
<g style="mix-blend-mode:screen">
<path d="M69.1718 405.093L69.3946 405H69.5246C69.842 404.747 70.0484 404.381 70.1002 403.979C70.1365 403.632 70.0453 403.285 69.8436 403.001C69.6419 402.717 69.3436 402.517 69.0046 402.437H68.6147H68.3547H68.2433H68.0947H68.0019C67.8493 402.551 67.7225 402.696 67.6297 402.863C67.5369 403.029 67.4802 403.213 67.4634 403.403C67.4404 403.672 67.4883 403.942 67.6024 404.186C67.7164 404.431 67.8926 404.641 68.1133 404.796H68.2619H68.4661H68.6332H69.1718V405.093Z" fill="#DFCBB3"/>
</g>
<g style="mix-blend-mode:screen">
<path d="M6.94573 399.299H7.07572H7.27998H7.78136H7.89277C8.12263 399.27 8.34061 399.181 8.52413 399.039L8.67269 398.891L8.80267 398.649V398.463V397.962V397.814C8.76659 397.574 8.6778 397.346 8.5427 397.145L8.39415 397.015L8.13418 396.867H7.94848H7.44711H7.22427L7.07572 396.737L6.7229 396.514H6.53721H6.27723H6.07297C5.66528 396.601 5.29899 396.824 5.03308 397.145L4.82882 397.405V397.554V397.776V397.944V398.333V398.501L4.92167 398.705V398.853C5.07807 399.041 5.27409 399.192 5.49564 399.294C5.71718 399.397 5.95875 399.449 6.20296 399.448C6.45934 399.465 6.7157 399.414 6.94573 399.299Z" fill="#D59C38"/>
</g>
<g style="mix-blend-mode:screen">
<path d="M12.4608 363.386L12.2008 363.887V364.147V364.537L12.2937 364.797L12.4236 365.002V365.132V365.354C12.5943 365.775 12.8769 366.141 13.2407 366.413L13.5192 366.506H13.9463H14.2434L14.7263 366.171L14.9119 365.911L15.0419 365.503V365.206V364.927C15.0419 364.742 14.9305 364.537 14.8562 364.333C14.736 363.997 14.5215 363.702 14.2382 363.485C13.955 363.268 13.6151 363.137 13.2593 363.107H12.9807L12.6465 363.293L12.4608 363.386Z" fill="#662B02"/>
</g>
<g style="mix-blend-mode:screen">
<path d="M-2.26468 403.459L-2.15327 403.719V403.83V403.96L-2.06042 404.053L-1.81902 404.257H-1.65189H-1.52191C-1.27061 404.307 -1.0105 404.289 -0.768758 404.204C-0.527021 404.119 -0.312547 403.971 -0.147771 403.774C0.0114136 403.566 0.115298 403.32 0.154251 403.06C0.193204 402.8 0.165966 402.535 0.0750615 402.289C-0.00364734 402.077 -0.130038 401.887 -0.294288 401.732C-0.458538 401.578 -0.656223 401.463 -0.871979 401.397C-1.05866 401.343 -1.25508 401.329 -1.44752 401.358C-1.63996 401.387 -1.82378 401.457 -1.98614 401.565C-2.26979 401.782 -2.45753 402.102 -2.50953 402.455C-2.56154 402.809 -2.47371 403.169 -2.26468 403.459Z" fill="#F9F6D2"/>
</g>
<g style="mix-blend-mode:screen">
<path d="M45.8672 374.806V374.602V374.323V374.119V373.952V373.84V373.618L45.7186 373.135L45.6072 372.949L45.3658 372.726L45.1801 372.596C44.9932 372.521 44.7921 372.489 44.5911 372.5C44.3901 372.512 44.1941 372.567 44.0169 372.663C43.8398 372.759 43.6858 372.892 43.5659 373.054C43.4461 373.216 43.3632 373.402 43.3231 373.599L43.4717 373.915L43.3603 374.156L43.5831 374.695V374.917C43.7094 375.142 43.897 375.326 44.1239 375.447C44.3508 375.569 44.6076 375.623 44.8644 375.604C45.0876 375.573 45.2983 375.482 45.4746 375.342C45.651 375.202 45.7865 375.016 45.8672 374.806Z" fill="#EADECF"/>
</g>
<g style="mix-blend-mode:screen">
<path d="M11.7553 372.021H11.9224L12.1638 371.873L12.3123 371.743L12.5537 371.39V371.223V370.944V370.758C12.5306 370.533 12.4567 370.316 12.3378 370.123C12.2188 369.93 12.0577 369.766 11.8667 369.644H11.7367H11.4024H11.0496C10.7308 369.747 10.4632 369.968 10.3011 370.261C10.139 370.554 10.0946 370.898 10.1769 371.223C10.2975 371.525 10.5245 371.773 10.8151 371.92C11.1058 372.067 11.4401 372.103 11.7553 372.021Z" fill="#C47F1E"/>
</g>
<g style="mix-blend-mode:screen">
<path d="M-0.0920377 381.138V381.38V381.565C0.020618 381.835 0.201316 382.071 0.432404 382.25C0.663491 382.429 0.937063 382.545 1.22639 382.587C1.47722 382.627 1.73406 382.608 1.97605 382.531C2.21804 382.453 2.43835 382.32 2.6191 382.141C2.86648 381.907 3.05065 381.614 3.15453 381.289C3.25841 380.964 3.27863 380.619 3.21332 380.284C3.13804 379.987 2.9848 379.714 2.76939 379.496C2.55397 379.277 2.28416 379.12 1.98774 379.04H1.82061H1.56064H1.37495L1.00356 379.226H0.855002L0.669308 379.43V379.541L0.539322 379.709C0.251487 380.019 0.0582414 380.406 -0.01776 380.823L-0.0920377 381.138Z" fill="#EADECF"/>
</g>
<g style="mix-blend-mode:screen">
<path d="M23.8253 313.769L23.9738 313.528V313.416V313.249V312.692V312.507V312.395C23.862 312.166 23.6876 311.973 23.4708 311.838C23.2539 311.703 23.0035 311.632 22.7483 311.634C22.4852 311.631 22.2263 311.699 21.9979 311.829C21.7695 311.96 21.5799 312.149 21.4484 312.377C21.3296 312.57 21.2591 312.789 21.243 313.015C21.2268 313.241 21.2654 313.468 21.3556 313.676C21.4228 313.856 21.5321 314.018 21.6742 314.147C21.8163 314.276 21.9872 314.369 22.1726 314.419C22.4799 314.532 22.8178 314.528 23.1224 314.408C23.427 314.288 23.6771 314.061 23.8253 313.769Z" fill="#9F5504"/>
</g>
<g style="mix-blend-mode:screen">
<path d="M37.4924 334.715V335.105V335.291V335.551V335.718L37.7153 336.071L37.8453 336.201L38.0495 336.35H38.2167C38.425 336.411 38.6444 336.427 38.8594 336.395C39.0743 336.363 39.2796 336.284 39.4608 336.164C39.6319 336.043 39.7762 335.889 39.8848 335.71C39.9935 335.531 40.0641 335.331 40.0922 335.124V334.808V334.548L39.9993 334.381L39.7579 334.065L39.6094 333.936L39.3865 333.806H39.2194H38.8109H38.6252H38.3652H38.1795L37.8267 334.047L37.6039 334.307L37.4739 334.53L37.4924 334.715Z" fill="#431B06"/>
</g>
<g style="mix-blend-mode:screen">
<path d="M16.4532 315.737V315.477V315.273C16.3817 314.948 16.1868 314.664 15.9096 314.48C15.6323 314.297 15.2946 314.228 14.9677 314.289H14.8005L14.5963 314.4L14.4663 314.512L14.3177 314.623L14.132 314.809V314.957L13.9835 315.292V315.44V315.83C14.027 316.022 14.1087 316.203 14.2235 316.362C14.3383 316.522 14.484 316.656 14.652 316.759C14.824 316.852 15.0136 316.908 15.2086 316.924C15.4036 316.94 15.5998 316.915 15.7847 316.851L16.1004 316.721L16.249 316.61L16.4347 316.406V316.239L16.5646 315.83L16.4532 315.737Z" fill="#E3D1BD"/>
</g>
<g style="mix-blend-mode:screen">
<path d="M9.74969 362.161H9.60114H9.37831H8.52411H8.31985L8.05988 362.291L7.91132 362.402C7.68563 362.65 7.54144 362.961 7.49826 363.293C7.45508 363.625 7.51501 363.962 7.66992 364.259L7.89275 364.389L8.227 364.575L8.44984 364.76H9.02549H9.28546L9.58257 364.575L9.39687 364.278L9.74969 364.389L9.52686 364.203H9.43401L9.82397 364.445C9.98964 364.304 10.1209 364.127 10.2078 363.927C10.2947 363.728 10.3349 363.511 10.3253 363.294C10.34 363.07 10.2943 362.847 10.193 362.648C10.0917 362.449 9.93858 362.28 9.74969 362.161Z" fill="#F9D46B"/>
</g>
<g style="mix-blend-mode:screen">
<path d="M-1.70761 319.043L-1.39193 319.191H-1.02054H-0.834845L-0.296332 319.024L-0.0734991 318.857L0.167903 318.56L0.27932 318.319V318.226C0.337403 318.029 0.353667 317.823 0.327064 317.62C0.300461 317.416 0.231581 317.221 0.124863 317.046C0.0181453 316.871 -0.124043 316.72 -0.292538 316.604C-0.461032 316.487 -0.652096 316.407 -0.853414 316.369H-1.03911H-1.28051H-1.44764L-1.78188 316.555L-1.93044 316.666L-2.09756 316.852V317.019C-2.27151 317.35 -2.32765 317.731 -2.25681 318.099C-2.18596 318.467 -1.99232 318.8 -1.70761 319.043Z" fill="#EADECF"/>
</g>
<path d="M141.955 804.34L174.782 771.514L-498.816 97.9214L-531.642 130.748L141.955 804.34Z" fill="url(#paint0_linear_1_6544)"/>
<path d="M168.877 777.413L174.786 771.504L-498.812 97.9116L-504.721 103.82L168.877 777.413Z" fill="url(#paint1_linear_1_6544)"/>
<path d="M325.592 688.423L327.64 686.375L-388.316 -29.5769L-390.365 -27.5286L325.592 688.423Z" fill="url(#paint2_linear_1_6544)"/>
<path d="M229.02 788.685L231.069 786.636L-484.888 70.6848L-486.936 72.7331L229.02 788.685Z" fill="url(#paint3_linear_1_6544)"/>
<path d="M112.957 851.831L115.005 849.783L-600.952 133.831L-603 135.879L112.957 851.831Z" fill="url(#paint4_linear_1_6544)"/>
<path d="M361.788 689.677L363.836 687.628L-352.12 -28.3233L-354.169 -26.2749L361.788 689.677Z" fill="url(#paint5_linear_1_6544)"/>
<path d="M436.196 688L438.245 685.951L-277.712 -30.0003L-279.76 -27.9519L436.196 688Z" fill="url(#paint6_linear_1_6544)"/>
<path d="M186.814 836.494L188.863 834.446L-527.094 118.494L-529.142 120.542L186.814 836.494Z" fill="url(#paint7_linear_1_6544)"/>
</g>
<defs>
<linearGradient id="paint0_linear_1_6544" x1="219.924" y1="846.857" x2="-588.912" y2="43.2668" gradientUnits="userSpaceOnUse">
<stop stop-color="#F4EFEA"/>
<stop offset="0.06" stop-color="#F3EDE8"/>
<stop offset="0.53" stop-color="#EEE3D8"/>
<stop offset="0.99" stop-color="#E3D1BD"/>
</linearGradient>
<linearGradient id="paint1_linear_1_6544" x1="-421.683" y1="180.949" x2="-13.6669" y2="588.968" gradientUnits="userSpaceOnUse">
<stop stop-color="#F4E0AE"/>
<stop offset="0.2" stop-color="#EACD8C"/>
<stop offset="0.32" stop-color="#E5C47C"/>
<stop offset="0.36" stop-color="#E0BE77"/>
<stop offset="0.42" stop-color="#D2AD69"/>
<stop offset="0.5" stop-color="#BC9152"/>
<stop offset="0.54" stop-color="#AA7A40"/>
<stop offset="0.62" stop-color="#C09657"/>
<stop offset="0.72" stop-color="#D4AF6B"/>
<stop offset="0.8" stop-color="#E1BF78"/>
<stop offset="0.87" stop-color="#E5C47C"/>
</linearGradient>
<linearGradient id="paint2_linear_1_6544" x1="-304.333" y1="56.6114" x2="129.34" y2="490.287" gradientUnits="userSpaceOnUse">
<stop stop-color="#F4E0AE"/>
<stop offset="0.2" stop-color="#EACD8C"/>
<stop offset="0.32" stop-color="#E5C47C"/>
<stop offset="0.36" stop-color="#E0BE77"/>
<stop offset="0.42" stop-color="#D2AD69"/>
<stop offset="0.5" stop-color="#BC9152"/>
<stop offset="0.54" stop-color="#AA7A40"/>
<stop offset="0.62" stop-color="#C09657"/>
<stop offset="0.72" stop-color="#D4AF6B"/>
<stop offset="0.8" stop-color="#E1BF78"/>
<stop offset="0.87" stop-color="#E5C47C"/>
</linearGradient>
<linearGradient id="paint3_linear_1_6544" x1="-400.905" y1="156.873" x2="32.7679" y2="590.549" gradientUnits="userSpaceOnUse">
<stop stop-color="#F4E0AE"/>
<stop offset="0.2" stop-color="#EACD8C"/>
<stop offset="0.32" stop-color="#E5C47C"/>
<stop offset="0.36" stop-color="#E0BE77"/>
<stop offset="0.42" stop-color="#D2AD69"/>
<stop offset="0.5" stop-color="#BC9152"/>
<stop offset="0.54" stop-color="#AA7A40"/>
<stop offset="0.62" stop-color="#C09657"/>
<stop offset="0.72" stop-color="#D4AF6B"/>
<stop offset="0.8" stop-color="#E1BF78"/>
<stop offset="0.87" stop-color="#E5C47C"/>
</linearGradient>
<linearGradient id="paint4_linear_1_6544" x1="-516.955" y1="220.033" x2="-83.2824" y2="653.708" gradientUnits="userSpaceOnUse">
<stop stop-color="#F4E0AE"/>
<stop offset="0.2" stop-color="#EACD8C"/>
<stop offset="0.32" stop-color="#E5C47C"/>
<stop offset="0.36" stop-color="#E0BE77"/>
<stop offset="0.42" stop-color="#D2AD69"/>
<stop offset="0.5" stop-color="#BC9152"/>
<stop offset="0.54" stop-color="#AA7A40"/>
<stop offset="0.62" stop-color="#C09657"/>
<stop offset="0.72" stop-color="#D4AF6B"/>
<stop offset="0.8" stop-color="#E1BF78"/>
<stop offset="0.87" stop-color="#E5C47C"/>
</linearGradient>
<linearGradient id="paint5_linear_1_6544" x1="-268.032" y1="57.8126" x2="165.641" y2="491.489" gradientUnits="userSpaceOnUse">
<stop stop-color="#F4E0AE"/>
<stop offset="0.2" stop-color="#EACD8C"/>
<stop offset="0.32" stop-color="#E5C47C"/>
<stop offset="0.36" stop-color="#E0BE77"/>
<stop offset="0.42" stop-color="#D2AD69"/>
<stop offset="0.5" stop-color="#BC9152"/>
<stop offset="0.54" stop-color="#AA7A40"/>
<stop offset="0.62" stop-color="#C09657"/>
<stop offset="0.72" stop-color="#D4AF6B"/>
<stop offset="0.8" stop-color="#E1BF78"/>
<stop offset="0.87" stop-color="#E5C47C"/>
</linearGradient>
<linearGradient id="paint6_linear_1_6544" x1="-193.716" y1="56.175" x2="239.957" y2="489.851" gradientUnits="userSpaceOnUse">
<stop stop-color="#F4E0AE"/>
<stop offset="0.2" stop-color="#EACD8C"/>
<stop offset="0.32" stop-color="#E5C47C"/>
<stop offset="0.36" stop-color="#E0BE77"/>
<stop offset="0.42" stop-color="#D2AD69"/>
<stop offset="0.5" stop-color="#BC9152"/>
<stop offset="0.54" stop-color="#AA7A40"/>
<stop offset="0.62" stop-color="#C09657"/>
<stop offset="0.72" stop-color="#D4AF6B"/>
<stop offset="0.8" stop-color="#E1BF78"/>
<stop offset="0.87" stop-color="#E5C47C"/>
</linearGradient>
<linearGradient id="paint7_linear_1_6544" x1="-442.993" y1="204.617" x2="-9.3197" y2="638.293" gradientUnits="userSpaceOnUse">
<stop stop-color="#F4E0AE"/>
<stop offset="0.2" stop-color="#EACD8C"/>
<stop offset="0.32" stop-color="#E5C47C"/>
<stop offset="0.36" stop-color="#E0BE77"/>
<stop offset="0.42" stop-color="#D2AD69"/>
<stop offset="0.5" stop-color="#BC9152"/>
<stop offset="0.54" stop-color="#AA7A40"/>
<stop offset="0.62" stop-color="#C09657"/>
<stop offset="0.72" stop-color="#D4AF6B"/>
<stop offset="0.8" stop-color="#E1BF78"/>
<stop offset="0.87" stop-color="#E5C47C"/>
</linearGradient>
<radialGradient id="paint8_radial_1_6544" cx="0" cy="0" r="1" gradientUnits="userSpaceOnUse" gradientTransform="translate(-65.6922 308.063) rotate(135) scale(17.831 222.888)">
<stop stop-color="#8C4703"/>
<stop offset="0.09" stop-color="#7B3F03"/>
<stop offset="0.49" stop-color="#391D01"/>
<stop offset="0.78" stop-color="#100800"/>
<stop offset="0.93"/>
</radialGradient>
<radialGradient id="paint9_radial_1_6544" cx="0" cy="0" r="1" gradientUnits="userSpaceOnUse" gradientTransform="translate(-50.6477 197.377) rotate(135) scale(17.831 222.888)">
<stop stop-color="#8C4703"/>
<stop offset="0.09" stop-color="#7B3F03"/>
<stop offset="0.49" stop-color="#391D01"/>
<stop offset="0.78" stop-color="#100800"/>
<stop offset="0.93"/>
</radialGradient>
</defs>
</svg>
